<svg width="368" height="267" viewBox="0 0 368 267" fill="none" xmlns="http://www.w3.org/2000/svg">
<g clip-path="url(#clip0_24_320)">
<path d="M234.508 199.969V264.271H73.4098C55.0548 264.271 40.121 249.847 40.121 232.12C40.121 214.393 55.0547 199.969 73.4098 199.969H234.508Z" fill="#F2F2F2"/>
<path d="M238.465 263.776C238.465 264.432 238.204 265.061 237.74 265.524C237.277 265.988 236.648 266.249 235.992 266.249H70.5403C61.5543 266.249 52.9364 262.679 46.5823 256.325C40.2282 249.971 36.6586 241.353 36.6586 232.367C36.6586 223.381 40.2282 214.763 46.5823 208.409C52.9364 202.055 61.5543 198.486 70.5403 198.486H235.992C236.648 198.486 237.277 198.746 237.741 199.21C238.204 199.674 238.465 200.303 238.465 200.959C238.465 201.615 238.204 202.244 237.741 202.707C237.277 203.171 236.648 203.432 235.992 203.432H70.5403C62.8661 203.432 55.5063 206.48 50.0798 211.907C44.6534 217.333 41.6048 224.693 41.6048 232.367C41.6048 240.041 44.6534 247.401 50.0798 252.828C55.5063 258.254 62.8661 261.303 70.5403 261.303H235.992C236.648 261.303 237.277 261.564 237.74 262.027C238.204 262.491 238.465 263.12 238.465 263.776Z" fill="#1FC5DD"/>
<path d="M234.508 214.808H61.3898C61.2586 214.808 61.1328 214.756 61.04 214.663C60.9473 214.57 60.8951 214.445 60.8951 214.314C60.8951 214.182 60.9473 214.057 61.04 213.964C61.1328 213.871 61.2586 213.819 61.3898 213.819H234.508C234.639 213.819 234.765 213.871 234.858 213.964C234.951 214.057 235.003 214.182 235.003 214.314C235.003 214.445 234.951 214.57 234.858 214.663C234.765 214.756 234.639 214.808 234.508 214.808Z" fill="#CCCCCC"/>
<path d="M234.508 226.679H61.3898C61.2586 226.679 61.1328 226.627 61.04 226.534C60.9473 226.441 60.8951 226.316 60.8951 226.184C60.8951 226.053 60.9473 225.927 61.04 225.835C61.1328 225.742 61.2586 225.69 61.3898 225.69H234.508C234.639 225.69 234.765 225.742 234.858 225.835C234.951 225.927 235.003 226.053 235.003 226.184C235.003 226.316 234.951 226.441 234.858 226.534C234.765 226.627 234.639 226.679 234.508 226.679Z" fill="#CCCCCC"/>
<path d="M234.508 238.55H61.3898C61.2586 238.55 61.1328 238.498 61.04 238.405C60.9473 238.312 60.8951 238.187 60.8951 238.055C60.8951 237.924 60.9473 237.798 61.04 237.706C61.1328 237.613 61.2586 237.561 61.3898 237.561H234.508C234.639 237.561 234.765 237.613 234.858 237.706C234.951 237.798 235.003 237.924 235.003 238.055C235.003 238.187 234.951 238.312 234.858 238.405C234.765 238.498 234.639 238.55 234.508 238.55Z" fill="#CCCCCC"/>
<path d="M234.508 250.421H61.3898C61.2586 250.421 61.1328 250.369 61.04 250.276C60.9473 250.183 60.8951 250.058 60.8951 249.926C60.8951 249.795 60.9473 249.669 61.04 249.577C61.1328 249.484 61.2586 249.432 61.3898 249.432H234.508C234.639 249.432 234.765 249.484 234.858 249.577C234.951 249.669 235.003 249.795 235.003 249.926C235.003 250.058 234.951 250.183 234.858 250.276C234.765 250.369 234.639 250.421 234.508 250.421Z" fill="#CCCCCC"/>
<path d="M359.013 212.073L318.67 262.143L193.226 161.067C178.933 149.551 176.354 128.95 187.476 115.146C198.599 101.342 219.277 99.4805 233.569 110.997L359.013 212.073Z" fill="#F2F2F2"/>
<path d="M322.061 264.241C321.65 264.751 321.052 265.077 320.4 265.148C319.748 265.218 319.095 265.026 318.584 264.615L189.75 160.807C182.753 155.169 178.282 146.982 177.321 138.048C176.359 129.113 178.987 120.163 184.625 113.166C190.263 106.169 198.45 101.698 207.384 100.737C216.319 99.7756 225.269 102.403 232.266 108.041L361.1 211.849C361.353 212.053 361.564 212.304 361.719 212.589C361.875 212.874 361.973 213.187 362.008 213.51C362.043 213.833 362.014 214.16 361.922 214.472C361.831 214.784 361.679 215.074 361.475 215.327C361.271 215.58 361.02 215.791 360.734 215.946C360.449 216.102 360.136 216.2 359.813 216.235C359.49 216.269 359.163 216.24 358.852 216.148C358.54 216.057 358.249 215.904 357.997 215.7L229.163 111.893C226.204 109.507 222.804 107.727 219.158 106.655C215.511 105.584 211.689 105.241 207.91 105.647C204.131 106.053 200.469 107.199 197.133 109.02C193.797 110.842 190.852 113.303 188.468 116.262C186.083 119.222 184.305 122.622 183.234 126.269C182.164 129.916 181.823 133.738 182.23 137.517C182.637 141.296 183.785 144.958 185.608 148.293C187.431 151.629 189.893 154.572 192.853 156.956L321.687 260.763C322.198 261.175 322.524 261.773 322.594 262.425C322.664 263.077 322.472 263.73 322.061 264.241Z" fill="#CCCCCC"/>
<path d="M349.703 223.628L214.9 115.01C214.849 114.969 214.807 114.919 214.776 114.862C214.745 114.805 214.725 114.742 214.718 114.678C214.711 114.613 214.717 114.548 214.735 114.485C214.754 114.423 214.784 114.365 214.825 114.314C214.866 114.264 214.916 114.222 214.973 114.191C215.03 114.159 215.092 114.14 215.157 114.133C215.222 114.126 215.287 114.132 215.349 114.15C215.412 114.168 215.47 114.199 215.52 114.24L350.324 222.858C350.375 222.898 350.417 222.949 350.448 223.006C350.479 223.063 350.499 223.125 350.506 223.19C350.513 223.255 350.507 223.32 350.489 223.382C350.471 223.445 350.44 223.503 350.399 223.554C350.359 223.604 350.308 223.646 350.251 223.677C350.194 223.708 350.131 223.728 350.067 223.735C350.002 223.742 349.937 223.736 349.874 223.718C349.812 223.699 349.754 223.669 349.703 223.628Z" fill="#CCCCCC"/>
<path d="M342.255 232.872L207.452 124.254C207.35 124.171 207.284 124.052 207.271 123.921C207.257 123.791 207.295 123.661 207.377 123.558C207.459 123.456 207.579 123.391 207.709 123.377C207.839 123.363 207.97 123.401 208.072 123.483L342.876 232.101C342.927 232.142 342.969 232.192 343 232.249C343.031 232.306 343.051 232.369 343.058 232.434C343.065 232.498 343.059 232.564 343.041 232.626C343.022 232.688 342.992 232.747 342.951 232.797C342.91 232.848 342.86 232.89 342.803 232.921C342.746 232.952 342.683 232.972 342.619 232.979C342.554 232.986 342.489 232.98 342.426 232.961C342.364 232.943 342.306 232.912 342.255 232.872Z" fill="#CCCCCC"/>
<path d="M334.807 242.115L200.003 133.497C199.901 133.415 199.836 133.295 199.822 133.165C199.808 133.035 199.846 132.904 199.929 132.802C200.011 132.7 200.13 132.634 200.261 132.62C200.391 132.606 200.522 132.645 200.624 132.727L335.428 241.345C335.478 241.386 335.52 241.436 335.552 241.493C335.583 241.55 335.602 241.613 335.609 241.677C335.616 241.742 335.61 241.807 335.592 241.869C335.574 241.932 335.543 241.99 335.503 242.04C335.462 242.091 335.412 242.133 335.355 242.164C335.298 242.195 335.235 242.215 335.17 242.222C335.106 242.229 335.04 242.223 334.978 242.205C334.916 242.186 334.858 242.156 334.807 242.115Z" fill="#CCCCCC"/>
<path d="M327.359 251.359L192.555 142.741C192.505 142.7 192.463 142.65 192.431 142.593C192.4 142.536 192.381 142.473 192.374 142.409C192.367 142.344 192.373 142.279 192.391 142.217C192.409 142.154 192.44 142.096 192.48 142.045C192.521 141.995 192.572 141.953 192.629 141.922C192.686 141.891 192.748 141.871 192.813 141.864C192.877 141.857 192.943 141.863 193.005 141.881C193.067 141.9 193.125 141.93 193.176 141.971L327.98 250.589C328.03 250.629 328.073 250.68 328.104 250.737C328.135 250.794 328.155 250.856 328.162 250.921C328.169 250.986 328.163 251.051 328.145 251.113C328.126 251.176 328.096 251.234 328.055 251.285C328.014 251.335 327.964 251.377 327.907 251.408C327.85 251.44 327.787 251.459 327.722 251.466C327.658 251.473 327.592 251.467 327.53 251.449C327.468 251.43 327.41 251.4 327.359 251.359Z" fill="#CCCCCC"/>
<path d="M367.505 266.744H0.494624C0.363441 266.744 0.237631 266.691 0.144872 266.599C0.0521116 266.506 0 266.38 0 266.249C0 266.118 0.0521116 265.992 0.144872 265.899C0.237631 265.806 0.363441 265.754 0.494624 265.754H367.505C367.637 265.754 367.762 265.806 367.855 265.899C367.948 265.992 368 266.118 368 266.249C368 266.38 367.948 266.506 367.855 266.599C367.762 266.691 367.637 266.744 367.505 266.744Z" fill="#CCCCCC"/>
<path d="M167.223 193.211L161.568 193.21L158.879 171.399L167.225 171.4L167.223 193.211Z" fill="#FFB8B8"/>
<path d="M157.529 191.595H168.434V198.461H150.663C150.663 197.559 150.84 196.666 151.185 195.833C151.53 195 152.036 194.243 152.674 193.606C153.311 192.968 154.068 192.462 154.901 192.117C155.734 191.772 156.627 191.595 157.529 191.595Z" fill="#2F2E41"/>
<path d="M109.453 193.211L103.799 193.21L101.109 171.399L109.455 171.4L109.453 193.211Z" fill="#FFB8B8"/>
<path d="M99.7596 191.595H110.665V198.461H92.8933C92.8933 197.559 93.0709 196.666 93.416 195.833C93.761 195 94.2668 194.243 94.9044 193.606C95.542 192.968 96.299 192.462 97.132 192.117C97.9651 191.772 98.8579 191.595 99.7596 191.595Z" fill="#2F2E41"/>
<path d="M128.34 31.425V28.9518C128.34 24.7212 130.021 20.6638 133.013 17.6723C136.004 14.6808 140.061 13.0002 144.292 13.0002C148.523 13.0002 152.58 14.6808 155.572 17.6723C158.563 20.6638 160.244 24.7212 160.244 28.9518V31.425C160.244 34.4749 159.032 37.4 156.875 39.5567C154.719 41.7134 151.794 42.925 148.744 42.925H139.84C138.33 42.925 136.835 42.6275 135.44 42.0496C134.044 41.4717 132.777 40.6246 131.709 39.5567C130.641 38.4888 129.794 37.2211 129.216 35.8258C128.638 34.4306 128.34 32.9352 128.34 31.425Z" fill="#2F2E41"/>
<path d="M144.292 43.7759C151.001 43.7759 156.44 38.3369 156.44 31.6275C156.44 24.9181 151.001 19.479 144.292 19.479C137.583 19.479 132.144 24.9181 132.144 31.6275C132.144 38.3369 137.583 43.7759 144.292 43.7759Z" fill="#FFB8B8"/>
<path d="M78.2122 73.3802C78.7052 72.9146 79.2943 72.5629 79.9379 72.3496C80.5816 72.1364 81.2641 72.0669 81.9376 72.146C82.611 72.2251 83.2589 72.4509 83.8356 72.8075C84.4123 73.1641 84.9038 73.6428 85.2755 74.2099L95.6897 72.2399L98.4303 78.2766L83.6845 80.8519C82.6904 81.4132 81.525 81.5904 80.409 81.3498C79.2931 81.1092 78.3041 80.4677 77.6296 79.5467C76.9551 78.6257 76.6418 77.4892 76.7492 76.3527C76.8566 75.2162 77.3771 74.1585 78.2122 73.3802Z" fill="#FFB8B8"/>
<path d="M134.957 51.633L117.88 62.8829L89.0638 72.0845C88.6818 72.2072 88.3542 72.4586 88.1366 72.7957C87.9191 73.1328 87.8251 73.5349 87.8707 73.9336L88.4994 79.348C88.5272 79.5876 88.6049 79.8188 88.7273 80.0267C88.8498 80.2346 89.0143 80.4145 89.2104 80.5551C89.4064 80.6957 89.6297 80.7937 89.8659 80.843C90.1021 80.8922 90.3459 80.8915 90.5818 80.841L117.702 75.0278C119.014 74.7481 120.255 74.2017 121.348 73.4225L140.533 59.7725C141.229 59.2749 141.784 58.6059 142.144 57.8304C142.505 57.0549 142.658 56.1993 142.59 55.3468C142.52 54.4932 142.229 53.6726 141.745 52.9658C141.261 52.2589 140.602 51.6901 139.832 51.3154C139.061 50.9407 138.207 50.7729 137.352 50.8286C136.498 50.8843 135.672 51.1615 134.957 51.633Z" fill="#CCCCCC"/>
<path d="M161.669 187.021C161.235 187.022 160.811 186.895 160.447 186.658C160.084 186.421 159.797 186.083 159.623 185.685L133.699 121.631C133.639 121.492 133.537 121.375 133.408 121.296C133.279 121.216 133.129 121.178 132.978 121.187C132.826 121.195 132.681 121.25 132.562 121.343C132.443 121.437 132.355 121.565 132.31 121.709L111.161 184.068C111.072 184.359 110.924 184.628 110.727 184.859C110.53 185.09 110.288 185.278 110.015 185.412C109.743 185.546 109.446 185.623 109.143 185.637C108.839 185.652 108.536 185.605 108.252 185.498L101.16 182.839C100.775 182.696 100.437 182.449 100.184 182.125C99.9312 181.802 99.7729 181.415 99.7268 181.007C96.5363 153.212 124.359 83.0563 124.641 82.3511L124.718 82.1557L150.081 87.7661L150.134 87.8236C160.253 98.8626 168.57 168.488 170.135 182.333C170.193 182.833 170.08 183.338 169.812 183.765C169.545 184.192 169.141 184.515 168.665 184.681L162.405 186.895C162.169 186.979 161.92 187.021 161.669 187.021Z" fill="#2F2E41"/>
<path d="M139.816 90.0243C133.671 90.0243 126.821 88.7991 124.712 83.7422L124.663 83.6261L124.729 83.5184C126.393 80.7873 128.593 76.1285 127.411 75.2539C125.081 73.5317 123.951 70.6985 124.052 66.8328C124.269 58.4411 129.987 50.9906 138.28 48.2931C140.594 47.5523 142.95 46.9458 145.335 46.4766C147.073 46.1259 148.868 46.1645 150.589 46.5896C152.311 47.0148 153.917 47.816 155.293 48.9358C156.685 50.0628 157.811 51.4843 158.589 53.0982C159.367 54.712 159.778 56.4781 159.792 58.2696C159.879 67.2376 158.498 79.728 151.427 88.3033C151.095 88.7011 150.634 88.9693 150.124 89.0607C146.722 89.676 143.274 89.9984 139.816 90.0243Z" fill="#CCCCCC"/>
<path d="M137.531 89.6885C137.865 88.4889 138.659 87.4698 139.741 86.8525C140.823 86.2353 142.104 86.0699 143.307 86.3923C143.553 86.4609 143.792 86.5496 144.023 86.6575L151.931 79.4613L157.43 83.1662L146.122 93.1729C145.611 94.0935 144.807 94.8169 143.838 95.228C142.869 95.6391 141.79 95.7142 140.773 95.4415C140.181 95.2794 139.627 95.0015 139.143 94.6238C138.658 94.2462 138.254 93.7763 137.952 93.2413C137.651 92.7064 137.458 92.117 137.386 91.5071C137.313 90.8973 137.363 90.2792 137.531 89.6885Z" fill="#FFB8B8"/>
<path d="M150.678 89.7799C150.165 89.7802 149.668 89.6028 149.271 89.2778L146.152 86.7295C145.892 86.5171 145.684 86.2486 145.542 85.9442C145.401 85.6398 145.33 85.3073 145.335 84.9717C145.34 84.636 145.421 84.3059 145.572 84.006C145.723 83.7061 145.94 83.4442 146.206 83.2399L159.285 73.209C159.44 73.0895 159.542 72.9137 159.568 72.7198C159.594 72.5258 159.543 72.3293 159.425 72.1729L151.353 61.5008C150.415 60.2651 149.944 58.7373 150.025 57.188C150.105 55.6388 150.731 54.1679 151.792 53.0357C152.909 51.8293 154.438 51.0868 156.077 50.9558C157.716 50.8247 159.345 51.3145 160.639 52.3281L160.69 52.3819L169.12 64.4519C170.031 65.1666 170.765 66.0823 171.264 67.1276C171.763 68.1728 172.014 69.3193 171.997 70.4775C171.98 71.6356 171.695 72.7741 171.165 73.804C170.635 74.834 169.874 75.7274 168.942 76.4147L152.003 89.3435C151.619 89.6269 151.155 89.7799 150.678 89.7799Z" fill="#CCCCCC"/>
<path d="M133.531 28.2099V22.1823L144.292 17.4834L154.553 22.1823V28.2099C154.553 28.4723 154.449 28.7239 154.263 28.9094C154.077 29.0949 153.826 29.1991 153.563 29.1991H134.52C134.258 29.1991 134.007 29.0949 133.821 28.9094C133.635 28.7239 133.531 28.4723 133.531 28.2099Z" fill="#2F2E41"/>
<path d="M143.798 13.7998C142.216 8.73561 145.539 2.93179 150.451 0.927242C155.363 -1.0773 161.241 0.323935 165.386 3.63575C169.531 6.94756 172.102 11.908 173.465 17.0357C174.828 22.1633 175.086 27.5102 175.338 32.8099C181.373 33.9185 185.479 41.0772 183.388 46.8465C181.298 52.6158 173.559 55.482 168.214 52.4666C162.87 49.4511 161.322 41.3451 165.179 36.5725C167.004 34.3142 168.024 31.5115 168.076 28.6083C168.129 25.7052 167.211 22.8675 165.469 20.5447C163.726 18.222 161.259 16.5469 158.457 15.7848C155.655 15.0228 152.679 15.2173 150 16.3376C147.026 17.5815 143.293 14.3495 143.798 13.7998Z" fill="#2F2E41"/>
<path d="M75.9812 49.998C68.7551 49.9505 61.6193 48.3877 55.0348 45.4104C54.6429 45.2357 54.3102 44.9508 54.0773 44.5903C53.8444 44.2299 53.7214 43.8095 53.7232 43.3804V25.3673C53.7238 24.7771 53.9585 24.2114 54.3758 23.7941C54.7931 23.3768 55.3589 23.1421 55.949 23.1414H96.0135C96.6036 23.1421 97.1694 23.3768 97.5866 23.7941C98.0039 24.2114 98.2386 24.7771 98.2393 25.3673V43.3805C98.2411 43.8096 98.118 44.2299 97.8852 44.5904C97.6523 44.9508 97.3196 45.2357 96.9276 45.4104C90.3432 48.3877 83.2074 49.9505 75.9812 49.998Z" fill="#1FC5DD"/>
<path d="M75.9757 35.4051C75.6787 35.4054 75.3847 35.3462 75.1108 35.2312L43.3402 21.8271C42.9305 21.6543 42.5819 21.3627 42.3395 20.9899C42.0971 20.6171 41.9718 20.1803 41.98 19.7357C41.9881 19.2911 42.1293 18.8591 42.3852 18.4955C42.6412 18.1319 43.0001 17.8532 43.4159 17.6955L75.187 5.64265C75.6987 5.44763 76.2645 5.44883 76.7753 5.64603L108.121 17.6989C108.534 17.8578 108.891 18.1366 109.145 18.4993C109.399 18.8621 109.539 19.2924 109.547 19.7353C109.555 20.1781 109.431 20.6133 109.191 20.9852C108.95 21.3571 108.604 21.6488 108.197 21.823L76.8512 35.2269C76.5744 35.3447 76.2766 35.4054 75.9757 35.4051Z" fill="#1FC5DD"/>
<path d="M57.4328 46.636C59.0719 46.636 60.4006 45.3073 60.4006 43.6683C60.4006 42.0293 59.0719 40.7006 57.4328 40.7006C55.7938 40.7006 54.4651 42.0293 54.4651 43.6683C54.4651 45.3073 55.7938 46.636 57.4328 46.636Z" fill="#3F3D56"/>
<path opacity="0.2" d="M108.305 19.9204L76.9593 33.3243C76.715 33.4287 76.452 33.4829 76.1863 33.4836C75.9205 33.4842 75.6573 33.4313 75.4124 33.328L43.6418 19.9243C43.2428 19.76 42.9099 19.4674 42.6958 19.0928C42.5557 19.3357 42.4689 19.6056 42.4411 19.8847C42.4133 20.1637 42.4453 20.4455 42.5347 20.7112C42.6242 20.977 42.7692 21.2207 42.9601 21.4261C43.1509 21.6316 43.3833 21.794 43.6418 21.9028L75.4124 35.3065C75.6573 35.4098 75.9205 35.4627 76.1863 35.4621C76.452 35.4614 76.715 35.4072 76.9593 35.3027L108.305 21.8989C108.562 21.7892 108.793 21.6262 108.983 21.4206C109.172 21.2151 109.316 20.9717 109.405 20.7065C109.493 20.4413 109.525 20.1604 109.497 19.8822C109.469 19.604 109.382 19.335 109.242 19.0927C109.03 19.4644 108.7 19.7553 108.305 19.9204Z" fill="black"/>
<path d="M57.6821 43.6567C57.8133 43.6567 57.9391 43.6046 58.0319 43.5118C58.1246 43.4191 58.1768 43.2933 58.1768 43.1621V26.6113L74.49 20.6683C74.6212 20.6703 74.7478 20.62 74.8419 20.5286C74.9361 20.4373 74.9901 20.3122 74.992 20.1811C74.994 20.0499 74.9437 19.9233 74.8524 19.8291C74.761 19.735 74.636 19.681 74.5048 19.6791L58.1915 25.622C58.0602 25.619 57.9297 25.6427 57.8078 25.6916C57.686 25.7405 57.5753 25.8136 57.4825 25.9065C57.3888 25.9983 57.3143 26.108 57.2637 26.2291C57.213 26.3501 57.1871 26.4801 57.1875 26.6113V43.1621C57.1875 43.2933 57.2396 43.4191 57.3324 43.5118C57.4251 43.6046 57.5509 43.6567 57.6821 43.6567Z" fill="#3F3D56"/>
</g>
<defs>
<clipPath id="clip0_24_320">
<rect width="368" height="266.744" fill="white"/>
</clipPath>
</defs>
</svg>
