<svg width="368" height="301" viewBox="0 0 368 301" fill="none" xmlns="http://www.w3.org/2000/svg">
<g clip-path="url(#clip0_23_274)">
<path d="M222.04 277.628C227.367 281.198 233.437 299.247 233.437 299.247C233.437 299.247 214.436 300.485 209.11 296.917C207.843 296.068 206.755 294.978 205.909 293.709C205.064 292.44 204.476 291.017 204.18 289.521C203.885 288.024 203.887 286.485 204.186 284.989C204.486 283.494 205.077 282.072 205.926 280.805C206.776 279.538 207.866 278.451 209.136 277.606C210.405 276.761 211.829 276.174 213.325 275.879C214.821 275.584 216.361 275.586 217.856 275.886C219.352 276.187 220.773 276.778 222.04 277.628Z" fill="#F1F1F1"/>
<path d="M233.653 299.111L233.356 299.348C222.498 285.727 206.112 281.022 205.948 280.976L206.051 280.609C206.216 280.655 222.716 285.39 233.653 299.111Z" fill="white"/>
<path d="M250.531 270.428C250.192 279.297 233.331 299.552 233.331 299.552C233.331 299.552 218.078 278.061 218.416 269.195C218.58 264.936 220.428 260.917 223.555 258.021C226.682 255.125 230.832 253.59 235.09 253.754C239.349 253.917 243.369 255.766 246.264 258.893C249.16 262.02 250.695 266.169 250.531 270.428Z" fill="#F1F1F1"/>
<path d="M233.648 299.708L233.152 299.529C241.321 276.846 234.971 254.123 234.905 253.897L235.412 253.751C235.478 253.98 241.876 276.86 233.648 299.708Z" fill="white"/>
<path d="M189.989 219.961H45.483C42.9085 219.958 40.4403 218.934 38.6199 217.114C36.7995 215.293 35.7755 212.825 35.7726 210.251V45.1089C35.7755 42.5344 36.7995 40.0662 38.6199 38.2458C40.4403 36.4254 42.9085 35.4014 45.483 35.3984H189.989C192.564 35.4013 195.032 36.4253 196.852 38.2458C198.673 40.0662 199.697 42.5344 199.7 45.1089V210.251C199.697 212.825 198.673 215.293 196.852 217.114C195.032 218.934 192.564 219.958 189.989 219.961Z" fill="#E6E6E6"/>
<path d="M183.237 211.868H52.2355C49.9496 211.865 47.7581 210.956 46.1418 209.34C44.5254 207.724 43.6162 205.532 43.6136 203.246V52.1134C43.6162 49.8275 44.5254 47.6361 46.1418 46.0197C47.7581 44.4034 49.9496 43.4942 52.2355 43.4916H183.237C185.523 43.4942 187.714 44.4034 189.33 46.0197C190.947 47.6361 191.856 49.8275 191.859 52.1134V203.246C191.856 205.532 190.947 207.724 189.33 209.34C187.714 210.956 185.523 211.865 183.237 211.868Z" fill="white"/>
<path d="M178.025 65.002H111.939C111.656 65.0024 111.375 64.9469 111.113 64.8388C110.851 64.7307 110.613 64.572 110.413 64.3718C110.212 64.1716 110.053 63.9339 109.945 63.6722C109.836 63.4105 109.781 63.13 109.781 62.8467C109.781 62.5634 109.836 62.2829 109.945 62.0212C110.053 61.7595 110.212 61.5218 110.413 61.3216C110.613 61.1214 110.851 60.9627 111.113 60.8546C111.375 60.7464 111.656 60.691 111.939 60.6914H178.025C178.309 60.691 178.589 60.7464 178.851 60.8546C179.113 60.9627 179.351 61.1214 179.551 61.3216C179.752 61.5218 179.911 61.7595 180.019 62.0212C180.128 62.2829 180.184 62.5634 180.184 62.8467C180.184 63.13 180.128 63.4105 180.019 63.6722C179.911 63.9339 179.752 64.1716 179.551 64.3718C179.351 64.572 179.113 64.7307 178.851 64.8388C178.589 64.9469 178.309 65.0024 178.025 65.002Z" fill="#E4E4E4"/>
<path d="M178.025 73.5186H111.939C111.367 73.5186 110.819 73.2915 110.415 72.8873C110.011 72.4831 109.784 71.9349 109.784 71.3632C109.784 70.7916 110.011 70.2433 110.415 69.8391C110.819 69.4349 111.367 69.2078 111.939 69.2078H178.025C178.597 69.2078 179.145 69.4349 179.549 69.8391C179.954 70.2433 180.181 70.7916 180.181 71.3632C180.181 71.9349 179.954 72.4831 179.549 72.8873C179.145 73.2915 178.597 73.5186 178.025 73.5186Z" fill="#E4E4E4"/>
<path d="M140.586 82.0353H111.939C111.367 82.0353 110.819 81.8082 110.415 81.404C110.011 80.9998 109.784 80.4515 109.784 79.8799C109.784 79.3082 110.011 78.76 110.415 78.3558C110.819 77.9516 111.367 77.7245 111.939 77.7245H140.586C141.157 77.7245 141.706 77.9516 142.11 78.3558C142.514 78.76 142.741 79.3082 142.741 79.8799C142.741 80.4515 142.514 80.9998 142.11 81.404C141.706 81.8082 141.157 82.0353 140.586 82.0353Z" fill="#E4E4E4"/>
<path d="M170.056 116.433H65.7263C65.443 116.433 65.1624 116.378 64.9005 116.27C64.6387 116.162 64.4007 116.003 64.2002 115.803C63.9998 115.602 63.8407 115.365 63.7322 115.103C63.6237 114.841 63.5679 114.561 63.5679 114.278C63.5679 113.994 63.6237 113.714 63.7322 113.452C63.8407 113.19 63.9998 112.953 64.2002 112.752C64.4007 112.552 64.6387 112.394 64.9005 112.285C65.1624 112.177 65.443 112.122 65.7263 112.122H170.056C170.339 112.122 170.62 112.177 170.882 112.285C171.144 112.394 171.382 112.552 171.582 112.752C171.783 112.953 171.942 113.19 172.05 113.452C172.159 113.714 172.214 113.994 172.214 114.278C172.214 114.561 172.159 114.841 172.05 115.103C171.942 115.365 171.783 115.602 171.582 115.803C171.382 116.003 171.144 116.162 170.882 116.27C170.62 116.378 170.339 116.433 170.056 116.433Z" fill="#E4E4E4"/>
<path d="M170.056 124.949H65.7262C65.1546 124.949 64.6063 124.722 64.2021 124.318C63.7979 123.914 63.5708 123.366 63.5708 122.794C63.5708 122.222 63.7979 121.674 64.2021 121.27C64.6063 120.866 65.1546 120.639 65.7262 120.639H170.056C170.628 120.639 171.176 120.866 171.58 121.27C171.984 121.674 172.211 122.222 172.211 122.794C172.211 123.366 171.984 123.914 171.58 124.318C171.176 124.722 170.628 124.949 170.056 124.949Z" fill="#E4E4E4"/>
<path d="M170.056 144.282H65.7262C65.1546 144.282 64.6064 144.055 64.2022 143.651C63.798 143.246 63.5709 142.698 63.5709 142.127C63.5709 141.555 63.798 141.007 64.2022 140.603C64.6064 140.198 65.1546 139.971 65.7262 139.971H170.056C170.628 139.971 171.176 140.198 171.58 140.603C171.984 141.007 172.211 141.555 172.211 142.127C172.211 142.698 171.984 143.246 171.58 143.651C171.176 144.055 170.628 144.282 170.056 144.282Z" fill="#E4E4E4"/>
<path d="M170.056 152.799H65.7262C65.1546 152.799 64.6063 152.571 64.2021 152.167C63.7979 151.763 63.5708 151.215 63.5708 150.643C63.5708 150.071 63.7979 149.523 64.2021 149.119C64.6063 148.715 65.1546 148.488 65.7262 148.488H170.056C170.628 148.488 171.176 148.715 171.58 149.119C171.984 149.523 172.211 150.071 172.211 150.643C172.211 151.215 171.984 151.763 171.58 152.167C171.176 152.571 170.628 152.799 170.056 152.799Z" fill="#E4E4E4"/>
<path d="M170.056 172.131H65.7262C65.1546 172.131 64.6064 171.904 64.2022 171.5C63.798 171.095 63.5709 170.547 63.5709 169.976C63.5709 169.404 63.798 168.856 64.2022 168.452C64.6064 168.047 65.1546 167.82 65.7262 167.82H170.056C170.628 167.82 171.176 168.047 171.58 168.452C171.984 168.856 172.211 169.404 172.211 169.976C172.211 170.547 171.984 171.095 171.58 171.5C171.176 171.904 170.628 172.131 170.056 172.131Z" fill="#E4E4E4"/>
<path d="M170.056 180.648H65.7262C65.1546 180.648 64.6063 180.421 64.2021 180.016C63.7979 179.612 63.5708 179.064 63.5708 178.492C63.5708 177.921 63.7979 177.372 64.2021 176.968C64.6063 176.564 65.1546 176.337 65.7262 176.337H170.056C170.628 176.337 171.176 176.564 171.58 176.968C171.984 177.372 172.211 177.921 172.211 178.492C172.211 179.064 171.984 179.612 171.58 180.016C171.176 180.421 170.628 180.648 170.056 180.648Z" fill="#E4E4E4"/>
<path d="M170.038 204.238H141.391C140.819 204.238 140.271 204.011 139.867 203.607C139.462 203.203 139.235 202.655 139.235 202.083C139.235 201.511 139.462 200.963 139.867 200.559C140.271 200.155 140.819 199.928 141.391 199.928H170.038C170.609 199.928 171.157 200.155 171.562 200.559C171.966 200.963 172.193 201.511 172.193 202.083C172.193 202.655 171.966 203.203 171.562 203.607C171.157 204.011 170.609 204.238 170.038 204.238Z" fill="#1FC5DD"/>
<path d="M93.6451 71.6157C93.651 76.2444 92.084 80.7378 89.201 84.3591C88.2685 85.5377 87.2069 86.6082 86.036 87.5504C82.8406 90.1425 78.9364 91.7085 74.8355 92.0429C74.2772 92.0913 73.7144 92.1133 73.1473 92.1133C72.0236 92.1135 70.9018 92.0209 69.7934 91.8363C69.4023 91.7748 69.0198 91.7 68.6374 91.6122C67.9716 91.464 67.3143 91.2806 66.668 91.0627C64.5722 90.3652 62.6036 89.3319 60.8391 88.0032C60.3688 87.6515 59.9161 87.2779 59.4766 86.8823C58.9389 86.4054 58.4296 85.8976 57.9511 85.3613C57.8236 85.2207 57.6961 85.0756 57.5731 84.9306C55.4283 82.4202 53.9218 79.4286 53.1819 76.2107C52.4421 72.9928 52.4908 69.6437 53.3239 66.4486C54.157 63.2535 55.7499 60.3071 57.9669 57.8602C60.1839 55.4132 62.9593 53.5382 66.0569 52.3948C69.1546 51.2514 72.4826 50.8735 75.7577 51.2932C79.0328 51.7129 82.158 52.9178 84.8673 54.8053C87.5765 56.6929 89.7894 59.2071 91.3178 62.134C92.8461 65.0609 93.6446 68.3137 93.6451 71.6157Z" fill="#E4E4E4"/>
<path d="M72.4338 78.611C77.073 78.611 80.8337 74.8503 80.8337 70.2111C80.8337 65.572 77.073 61.8112 72.4338 61.8112C67.7947 61.8112 64.0339 65.572 64.0339 70.2111C64.0339 74.8503 67.7947 78.611 72.4338 78.611Z" fill="#9E616A"/>
<path d="M81.7852 66.1165C81.8233 65.3659 81.6115 64.6239 81.183 64.0065L80.8797 63.5757C79.785 61.4657 77.9784 59.5668 76.6554 58.1777C75.6618 57.1359 74.6685 56.6348 73.7144 56.6831C73.0202 56.7327 72.3738 57.0551 71.9166 57.5799C70.6603 57.5031 69.409 57.7946 68.3159 58.4184C67.2227 59.0423 66.3354 59.9714 65.7625 61.0921C61.7404 63.2152 62.9404 69.4837 62.9535 69.5496L63.9252 71.1805L64.0351 70.9738C64.0351 70.9695 64.0482 70.9519 64.0658 70.9167C64.2549 70.5782 65.2834 68.6968 65.978 67.5056C66.2315 67.0992 66.5687 66.7516 66.967 66.4857C67.6176 66.0412 68.3653 65.7594 69.1473 65.6637L71.2836 65.3868L70.4749 66.6H76.2948L78.5322 66.3363C78.7565 67.255 80.5324 70.82 80.7477 71.2508L80.7652 71.286L80.8839 71.5277L81.5478 69.7035C81.9354 68.5484 82.0172 67.3126 81.7852 66.1165Z" fill="#2F2E41"/>
<path d="M60.9007 88.0471C61.2611 87.5724 63.1293 85.3569 67.4284 84.1832L69.7054 81.6468L78.8355 80.1918L83.4819 82.759L89.2008 84.3591C88.2684 85.5377 87.2067 86.6082 86.0358 87.5504C82.8404 90.1425 78.9363 91.7085 74.8353 92.0429C74.2771 92.0913 73.7144 92.1133 73.1473 92.1133C72.0236 92.1135 70.9018 92.0209 69.7934 91.8363C69.4021 91.7748 69.0197 91.7 68.6373 91.6121C67.9716 91.464 67.3142 91.2806 66.6679 91.0626C64.5958 90.3742 62.6484 89.356 60.9007 88.0471C60.8787 88.0339 60.8611 88.0164 60.8391 88.0032L60.9007 88.0471Z" fill="#1FC5DD"/>
<path d="M234.168 10.2812H1.30435C0.958528 10.2808 0.626983 10.1433 0.382452 9.89873C0.137922 9.6542 0.000376988 9.32265 0 8.97684V1.30434C0.000376988 0.958524 0.137922 0.626979 0.382452 0.382449C0.626983 0.137919 0.958528 0.000376988 1.30435 0H234.168C234.514 0.000376988 234.845 0.137919 235.09 0.382449C235.334 0.626979 235.472 0.958524 235.472 1.30434V8.97684C235.472 9.32265 235.334 9.6542 235.09 9.89873C234.845 10.1433 234.514 10.2808 234.168 10.2812Z" fill="#1FC5DD"/>
<path d="M7.56961 6.6182C8.59236 6.6182 9.42145 5.7891 9.42145 4.76636C9.42145 3.74362 8.59236 2.91452 7.56961 2.91452C6.54687 2.91452 5.71777 3.74362 5.71777 4.76636C5.71777 5.7891 6.54687 6.6182 7.56961 6.6182Z" fill="white"/>
<path d="M14.5987 6.6182C15.6214 6.6182 16.4505 5.7891 16.4505 4.76636C16.4505 3.74362 15.6214 2.91452 14.5987 2.91452C13.5759 2.91452 12.7468 3.74362 12.7468 4.76636C12.7468 5.7891 13.5759 6.6182 14.5987 6.6182Z" fill="white"/>
<path d="M21.628 6.6182C22.6507 6.6182 23.4798 5.7891 23.4798 4.76636C23.4798 3.74362 22.6507 2.91452 21.628 2.91452C20.6052 2.91452 19.7761 3.74362 19.7761 4.76636C19.7761 5.7891 20.6052 6.6182 21.628 6.6182Z" fill="white"/>
<path d="M227.281 3.49175H219.187C219.029 3.4904 218.878 3.42663 218.766 3.31434C218.655 3.20205 218.593 3.05032 218.593 2.89219C218.593 2.73406 218.655 2.58233 218.766 2.47004C218.878 2.35774 219.029 2.29398 219.187 2.29262H227.281C227.36 2.29195 227.439 2.30696 227.512 2.33678C227.585 2.36661 227.652 2.41067 227.708 2.46641C227.765 2.52215 227.809 2.58847 227.84 2.66155C227.87 2.73463 227.886 2.81302 227.886 2.89219C227.886 2.97136 227.87 3.04975 227.84 3.12283C227.809 3.19591 227.765 3.26223 227.708 3.31797C227.652 3.37372 227.585 3.41777 227.512 3.4476C227.439 3.47743 227.36 3.49243 227.281 3.49175Z" fill="white"/>
<path d="M227.281 5.74012H219.187C219.028 5.74012 218.875 5.67695 218.763 5.56451C218.651 5.45207 218.587 5.29957 218.587 5.14055C218.587 4.98154 218.651 4.82904 218.763 4.7166C218.875 4.60416 219.028 4.54099 219.187 4.54099H227.281C227.36 4.54031 227.439 4.55532 227.512 4.58515C227.585 4.61497 227.652 4.65903 227.708 4.71477C227.765 4.77051 227.809 4.83684 227.84 4.90992C227.87 4.983 227.886 5.06138 227.886 5.14055C227.886 5.21973 227.87 5.29811 227.84 5.37119C227.809 5.44427 227.765 5.5106 227.708 5.56634C227.652 5.62208 227.585 5.66614 227.512 5.69597C227.439 5.72579 227.36 5.7408 227.281 5.74012Z" fill="white"/>
<path d="M227.281 7.9885H219.187C219.029 7.98722 218.878 7.92348 218.766 7.81118C218.655 7.69888 218.592 7.54711 218.592 7.38893C218.592 7.23076 218.655 7.07899 218.766 6.96669C218.878 6.85439 219.029 6.79065 219.187 6.78937H227.281C227.439 6.79065 227.591 6.85439 227.702 6.96669C227.813 7.07899 227.876 7.23076 227.876 7.38893C227.876 7.54711 227.813 7.69888 227.702 7.81118C227.591 7.92348 227.439 7.98722 227.281 7.9885Z" fill="white"/>
<path d="M291.211 206.326C290.839 205.921 290.56 205.439 290.394 204.914C290.228 204.389 290.179 203.834 290.25 203.289C290.322 202.743 290.512 202.219 290.808 201.755C291.104 201.291 291.498 200.897 291.962 200.601L288.876 187.581L295.408 189.967L297.337 201.966C297.782 202.779 297.913 203.727 297.705 204.63C297.498 205.534 296.966 206.329 296.211 206.867C295.456 207.404 294.53 207.646 293.609 207.547C292.687 207.447 291.834 207.013 291.211 206.326Z" fill="#9E616A"/>
<path d="M275.505 151.763L278.126 158.503C278.126 158.503 277.003 165.243 278.875 166.741C280.747 168.239 279.998 168.239 279.998 169.362C280.063 170.168 280.296 170.952 280.683 171.661C281.07 172.371 281.603 172.991 282.245 173.482C283.743 174.605 290.483 197.447 290.483 197.447H297.224C297.006 195.707 297.006 193.946 297.224 192.205C297.598 189.584 296.1 182.843 295.351 181.72C294.603 180.596 295.351 179.099 295.351 176.852C295.351 174.605 293.854 173.482 293.854 169.737C293.854 165.992 289.36 136.784 289.734 133.414C290.109 130.043 285.99 127.048 285.99 127.048H282.245L275.505 151.763Z" fill="#E4E4E4"/>
<path d="M292.743 294.177H287.761L285.391 274.962L292.743 274.963L292.743 294.177Z" fill="#9E616A"/>
<path d="M294.013 299.006L277.951 299.005V298.802C277.951 297.144 278.609 295.554 279.782 294.381C280.954 293.209 282.545 292.55 284.203 292.55L287.137 290.324L292.611 292.551L294.014 292.551L294.013 299.006Z" fill="#2F2E41"/>
<path d="M247.171 294.035L242.493 292.323L246.868 273.464L253.773 275.99L247.171 294.035Z" fill="#9E616A"/>
<path d="M246.705 299.006L231.62 293.487L231.69 293.296C232.26 291.739 233.425 290.472 234.929 289.774C236.433 289.075 238.152 289.003 239.71 289.573L243.23 288.49L247.606 292.462L248.923 292.944L246.705 299.006Z" fill="#2F2E41"/>
<path d="M281.767 204.327C281.767 204.327 278.397 220.803 284.014 219.305C289.631 217.807 287.384 203.578 287.384 203.578L281.767 204.327Z" fill="#A0616A"/>
<path d="M257.053 190.659C257.053 190.659 252.559 196.65 252.559 200.02C252.559 203.39 251.061 233.348 251.061 233.348C251.061 233.348 239.692 277.958 241.938 280.205C244.185 282.451 252.049 284.698 253.172 283.575C254.296 282.451 264.168 236.343 264.168 236.343L273.529 211.254L282.142 247.203L282.891 285.399C282.891 285.399 292.253 287.645 294.125 286.147C295.997 284.65 296.372 248.326 294.125 235.594C291.878 222.863 294.499 193.654 294.499 193.654L257.053 190.659Z" fill="#2F2E41"/>
<path d="M272.07 110.71C278.274 110.71 283.304 105.68 283.304 99.4759C283.304 93.2715 278.274 88.2419 272.07 88.2419C265.866 88.2419 260.836 93.2715 260.836 99.4759C260.836 105.68 265.866 110.71 272.07 110.71Z" fill="#9E616A"/>
<path d="M257.802 126.999C257.802 126.999 261.036 122.18 267.402 115.814C270.772 114.69 276.612 115.345 278.636 115.814C287.998 128.171 288.587 127.35 291.024 134.254C291.656 136.045 291.972 137.765 291.691 139.169C290.567 144.786 294.125 190.284 294.499 191.782C294.874 193.28 297.495 195.152 294.874 195.152C292.252 195.152 252.559 193.654 253.308 192.531C254.057 191.407 257.802 126.999 257.802 126.999Z" fill="#E4E4E4"/>
<path opacity="0.1" d="M256.087 192.037L267.351 167.254L261.719 193.611L256.087 192.037Z" fill="black"/>
<path d="M268.671 109.883C269.723 109.101 270.692 108.212 271.562 107.231C272.435 106.241 272.982 105.006 273.127 103.694C273.191 103.04 273.088 102.381 272.829 101.777C272.569 101.173 272.161 100.645 271.642 100.242C270.572 99.4858 268.94 99.5298 268.052 100.493C268.481 99.1059 268.873 97.4699 268.004 96.3068C267.213 95.2483 265.738 95.0685 264.463 94.7195C262.006 94.0352 259.891 92.4598 258.532 90.3006L260.696 90.7485L260.455 89.2056L262.248 89.8292L262.264 87.6803L264.115 88.716C266.381 86.6385 269.367 85.5258 272.44 85.614C273.99 85.6399 275.509 86.0567 276.855 86.8259C278.204 87.6061 279.225 88.8474 279.731 90.3211C280.684 89.3321 282.382 89.4086 283.517 90.1815C284.653 90.9544 285.319 92.2474 285.777 93.542C286.684 96.0248 286.895 98.7081 286.387 101.302C285.865 103.902 284.464 106.243 282.42 107.932C280.542 109.365 278.307 110.255 275.958 110.503C273.618 110.745 271.256 110.644 268.946 110.203" fill="#2F2E41"/>
<path d="M252.58 206.278C252.953 205.873 253.232 205.391 253.398 204.866C253.564 204.341 253.613 203.786 253.541 203.24C253.47 202.694 253.279 202.171 252.983 201.707C252.688 201.242 252.294 200.848 251.829 200.553L254.915 187.532L248.384 189.918L246.454 201.917C246.01 202.73 245.879 203.678 246.086 204.582C246.294 205.485 246.825 206.281 247.58 206.818C248.335 207.356 249.261 207.598 250.183 207.498C251.104 207.399 251.957 206.964 252.58 206.278Z" fill="#9E616A"/>
<path d="M261.546 126.999H257.802C257.802 126.999 253.683 129.995 254.057 133.365C254.431 136.735 249.938 165.944 249.938 169.688C249.938 173.433 248.44 174.556 248.44 176.803C248.44 179.05 249.189 180.548 248.44 181.671C247.691 182.795 246.193 189.535 246.568 192.156C246.785 193.897 246.785 195.658 246.568 197.399H253.308C253.308 197.399 260.048 174.556 261.546 173.433C262.189 172.943 262.721 172.322 263.108 171.613C263.495 170.903 263.729 170.12 263.793 169.314C263.793 168.191 263.044 168.191 264.916 166.693C266.789 165.195 265.665 158.454 265.665 158.454L268.287 151.714L261.546 126.999Z" fill="#E4E4E4"/>
<path d="M367.477 300.05H162.063C161.995 300.051 161.926 300.037 161.863 300.011C161.799 299.985 161.741 299.946 161.692 299.898C161.644 299.849 161.605 299.791 161.579 299.728C161.552 299.664 161.539 299.596 161.539 299.527C161.539 299.458 161.552 299.39 161.579 299.326C161.605 299.263 161.644 299.205 161.692 299.156C161.741 299.108 161.799 299.069 161.863 299.043C161.926 299.017 161.995 299.003 162.063 299.004H367.477C367.545 299.003 367.614 299.017 367.677 299.043C367.741 299.069 367.799 299.108 367.848 299.156C367.896 299.205 367.935 299.263 367.961 299.326C367.988 299.39 368.001 299.458 368.001 299.527C368.001 299.596 367.988 299.664 367.961 299.728C367.935 299.791 367.896 299.849 367.848 299.898C367.799 299.946 367.741 299.985 367.677 300.011C367.614 300.037 367.545 300.051 367.477 300.05Z" fill="#CACACA"/>
</g>
<defs>
<clipPath id="clip0_23_274">
<rect width="368" height="300.05" fill="white"/>
</clipPath>
</defs>
</svg>
