<svg width="368" height="221" viewBox="0 0 368 221" fill="none" xmlns="http://www.w3.org/2000/svg">
<g clip-path="url(#clip0_24_356)">
<path d="M281.75 217.525C277.038 213.544 274.176 207.255 274.927 201.132C275.677 195.01 280.326 189.382 286.355 188.082C292.385 186.781 299.258 190.38 301.09 196.27C302.097 184.915 303.259 173.083 309.296 163.413C314.763 154.656 324.232 148.391 334.493 147.27C344.755 146.149 355.559 150.383 361.959 158.482C368.359 166.581 369.926 178.356 365.444 187.655C362.142 194.505 356.058 199.603 349.684 203.751C329.088 217.04 304.386 222.444 280.122 218.969L281.75 217.525Z" fill="#F2F2F2"/>
<path d="M351.811 150.617C343.344 157.514 335.576 165.227 328.62 173.646C317.734 186.776 308.925 201.496 302.5 217.296C302.03 218.448 303.901 218.95 304.366 217.81C314.879 192.133 331.662 169.502 353.18 151.986C354.146 151.199 352.77 149.837 351.811 150.617Z" fill="white"/>
<path d="M118.465 216.443C124.936 210.975 128.867 202.337 127.836 193.928C126.805 185.519 120.421 177.789 112.139 176.003C103.857 174.217 94.417 179.16 91.9016 187.25C90.5172 171.653 88.922 155.403 80.6296 142.12C73.1211 130.093 60.1161 121.488 46.0217 119.948C31.9272 118.409 17.0876 124.223 8.29737 135.348C-0.492822 146.472 -2.64506 162.645 3.51136 175.417C8.04658 184.826 16.4021 191.828 25.1565 197.524C53.0862 215.698 87.7331 223.278 120.7 218.426" fill="#F2F2F2"/>
<path d="M22.235 124.546C33.8647 134.018 44.5337 144.612 54.0877 156.175C63.6432 167.726 72.0558 180.177 79.2073 193.352C83.2047 200.743 86.7956 208.346 89.9641 216.128C90.6101 217.711 88.0395 218.401 87.4006 216.835C81.7885 203.115 74.8452 189.978 66.6704 177.613C58.5353 165.292 49.2242 153.789 38.8679 143.267C33.0103 137.318 26.8301 131.696 20.3553 126.425C19.0281 125.345 20.9188 123.474 22.235 124.546Z" fill="white"/>
<path d="M264.156 219.531H109.766V61.1218C109.766 27.4191 137.185 0 170.887 0H203.035C236.737 0 264.156 27.4191 264.156 61.1218V219.531Z" fill="#F2F2F2"/>
<path d="M232.009 219.531H109.766V61.1218C109.732 48.2077 113.821 35.62 121.438 25.1914C121.719 24.8086 121.999 24.4309 122.288 24.0573C125.972 19.2251 130.357 14.9694 135.297 11.4308C135.576 11.2278 135.856 11.0283 136.14 10.8288C140.274 7.96826 144.745 5.62986 149.452 3.86679C149.732 3.76083 150.017 3.65467 150.301 3.55285C154.559 2.0335 158.972 0.99276 163.46 0.449834C163.738 0.411829 164.024 0.382089 164.309 0.352349C168.683 -0.115252 173.093 -0.115252 177.466 0.352349C177.751 0.382089 178.037 0.411825 178.318 0.450241C182.805 0.993203 187.217 2.03382 191.474 3.55286C191.758 3.65469 192.043 3.76085 192.323 3.86701C196.973 5.60784 201.391 7.91135 205.481 10.7261C205.765 10.9213 206.049 11.1208 206.33 11.3203C209.098 13.2968 211.699 15.4988 214.106 17.9037C216.035 19.8327 217.833 21.8889 219.488 24.0585C219.776 24.4309 220.056 24.8087 220.336 25.1908C227.953 35.6195 232.043 48.2075 232.009 61.1218V219.531Z" fill="#CCCCCC"/>
<path d="M222.069 148.68C225.807 148.68 228.837 145.65 228.837 141.913C228.837 138.175 225.807 135.145 222.069 135.145C218.331 135.145 215.301 138.175 215.301 141.913C215.301 145.65 218.331 148.68 222.069 148.68Z" fill="#1FC5DD"/>
<path d="M251.509 214.786H246.323L243.855 194.784L251.509 194.785L251.509 214.786Z" fill="#FFB8B8"/>
<path d="M242.619 213.305H252.62V219.602H236.322C236.322 218.775 236.484 217.956 236.801 217.192C237.117 216.428 237.581 215.734 238.166 215.149C238.751 214.564 239.445 214.1 240.209 213.784C240.973 213.467 241.792 213.305 242.619 213.305Z" fill="#2F2E41"/>
<path d="M277.311 214.786H272.125L269.658 194.784L277.312 194.785L277.311 214.786Z" fill="#FFB8B8"/>
<path d="M268.421 213.305H278.422V219.602H262.124C262.124 218.775 262.287 217.956 262.603 217.192C262.92 216.428 263.383 215.734 263.968 215.149C264.553 214.564 265.247 214.1 266.011 213.784C266.775 213.467 267.594 213.305 268.421 213.305Z" fill="#2F2E41"/>
<path d="M225.494 143.253C225.121 142.704 224.873 142.079 224.768 141.423C224.662 140.767 224.702 140.096 224.884 139.457C225.066 138.818 225.385 138.227 225.82 137.725C226.256 137.223 226.795 136.823 227.402 136.552L245.03 87.9647L253.705 92.6985L233.577 139.13C233.964 140.18 233.953 141.334 233.546 142.376C233.139 143.418 232.363 144.274 231.367 144.782C230.371 145.29 229.223 145.415 228.14 145.134C227.058 144.852 226.116 144.183 225.494 143.253Z" fill="#FFB8B8"/>
<path d="M274.662 152.383C274.086 152.053 273.589 151.6 273.206 151.057C272.824 150.514 272.565 149.893 272.449 149.239C272.332 148.585 272.36 147.914 272.531 147.272C272.702 146.63 273.012 146.033 273.438 145.524L267.977 94.1266L277.849 94.5776L280.118 145.133C280.926 145.907 281.423 146.949 281.513 148.064C281.604 149.179 281.283 150.288 280.61 151.182C279.938 152.075 278.961 152.691 277.864 152.913C276.768 153.134 275.629 152.946 274.662 152.383Z" fill="#FFB8B8"/>
<path d="M258.914 78.965C264.651 78.965 269.303 74.3137 269.303 68.576C269.303 62.8383 264.651 58.187 258.914 58.187C253.176 58.187 248.525 62.8383 248.525 68.576C248.525 74.3137 253.176 78.965 258.914 78.965Z" fill="#FFB8B8"/>
<path d="M274.595 140.694H243.274L243.312 140.45C243.368 140.086 248.894 103.887 244.819 92.0451C244.41 90.8813 244.446 89.6074 244.92 88.4685C245.394 87.3297 246.272 86.4064 247.386 85.8764C253.211 83.1332 264.393 79.7553 273.831 87.9529C275.22 89.1791 276.305 90.7116 276.999 92.4291C277.694 94.1467 277.979 96.0023 277.833 97.8492L274.595 140.694Z" fill="#1FC5DD"/>
<path d="M249.29 109.237L235.189 106.376L241.799 90.7131C242.194 89.196 243.176 87.8978 244.527 87.1031C245.879 86.3084 247.49 86.0822 249.008 86.4741C250.526 86.866 251.827 87.844 252.625 89.1935C253.422 90.5431 253.653 92.154 253.264 93.6729L249.29 109.237Z" fill="#1FC5DD"/>
<path d="M267.35 114.549L266.502 95.116C265.86 91.463 267.951 88.0097 271.167 87.4452C274.384 86.8828 277.525 89.4164 278.171 93.0963L281.357 111.254L267.35 114.549Z" fill="#1FC5DD"/>
<path d="M273.554 138.367C278.593 157.561 279.143 181.965 277.783 208.584L271.016 207.738L258.749 156.979L251.981 208.584L244.367 208.161C242.093 180.231 239.878 156.253 243.521 140.482L273.554 138.367Z" fill="#2F2E41"/>
<path d="M265.759 76.6049C263.821 78.6694 260.222 77.5612 259.969 74.7407C259.949 74.5218 259.951 74.3014 259.973 74.0827C260.104 72.8334 260.826 71.6991 260.653 70.38C260.614 70.0517 260.491 69.7389 260.297 69.4711C258.753 67.4029 255.127 70.3961 253.67 68.5239C252.776 67.3759 253.827 65.5684 253.141 64.2853C252.236 62.5918 249.554 63.4272 247.873 62.4998C246.002 61.4679 246.114 58.5976 247.346 56.8518C248.847 54.7226 251.481 53.5865 254.081 53.4228C256.681 53.259 259.264 53.962 261.691 54.9081C264.45 55.983 267.185 57.4686 268.883 59.8941C270.947 62.8436 271.145 66.8091 270.113 70.258C269.485 72.3561 267.342 74.919 265.759 76.6049Z" fill="#2F2E41"/>
<path d="M355.303 219.803H43.0127C42.8794 219.803 42.7516 219.75 42.6575 219.655C42.5634 219.561 42.5105 219.433 42.5105 219.3C42.5105 219.166 42.5634 219.038 42.6575 218.944C42.7516 218.85 42.8794 218.796 43.0127 218.796H355.303C355.436 218.796 355.564 218.85 355.658 218.944C355.752 219.038 355.805 219.166 355.805 219.3C355.805 219.433 355.752 219.561 355.658 219.655C355.564 219.75 355.436 219.803 355.303 219.803Z" fill="#3F3D56"/>
<path d="M198.381 173.637H143.393C142.669 173.641 141.973 173.357 141.457 172.848C140.942 172.34 140.649 171.647 140.644 170.923V48.1849C140.649 47.4607 140.942 46.7683 141.457 46.2596C141.973 45.7509 142.669 45.4674 143.393 45.4713H198.381C199.106 45.4674 199.802 45.7509 200.317 46.2596C200.833 46.7683 201.125 47.4607 201.131 48.1849V170.923C201.125 171.647 200.833 172.34 200.317 172.848C199.802 173.357 199.106 173.641 198.381 173.637Z" fill="white"/>
<path d="M201.131 85.1855H140.644V86.0315H201.131V85.1855Z" fill="#CCCCCC"/>
<path d="M201.343 133.453H140.855V134.299H201.343V133.453Z" fill="#CCCCCC"/>
<path d="M160.524 45.4713H159.678V174.06H160.524V45.4713Z" fill="#CCCCCC"/>
<path d="M181.674 45.4713H180.828V174.06H181.674V45.4713Z" fill="#CCCCCC"/>
</g>
<defs>
<clipPath id="clip0_24_356">
<rect width="368" height="220.013" fill="white"/>
</clipPath>
</defs>
</svg>
